<svg width="25" height="26" viewBox="0 0 25 26" fill="none" xmlns="http://www.w3.org/2000/svg">
<g clip-path="url(#clip0_1_12)">
<path d="M21.1115 6.55773C17.7726 4.35157 13.3346 3.8494 9.648 4.51476C5.52344 0.536462 0.901476 2.36632 0 2.89236C0 2.89236 3.17187 5.58768 2.65668 7.94835C-1.09852 11.7765 0.686632 16.0386 2.65668 18.0512C3.17187 20.4119 0 23.1072 0 23.1072C0.892795 23.635 5.50217 25.4592 9.648 21.5013C13.3264 22.1623 17.7643 21.6645 21.1115 19.4544C26.2878 16.1497 26.3047 9.87934 21.1115 6.5573V6.55773ZM12.7682 19.4332C11.4774 19.4369 10.1916 19.271 8.94401 18.9397L8.08594 19.7682C7.60931 20.2305 7.07563 20.63 6.49783 20.957C5.79681 21.31 5.03526 21.5269 4.25347 21.5964C4.29687 21.5191 4.33507 21.4418 4.3737 21.3689C5.2322 19.7775 5.46369 18.3497 5.06814 17.0855C3.65625 15.974 2.8112 14.5534 2.8112 13C2.8112 9.44098 7.2704 6.55773 12.7682 6.55773C18.2661 6.55773 22.7253 9.44098 22.7253 13C22.7253 16.559 18.2661 19.4332 12.7682 19.4332ZM7.99132 14.5321C7.59713 14.5377 7.21681 14.3868 6.9337 14.1124C6.65058 13.8381 6.48776 13.4627 6.4809 13.0686C6.45052 11.0985 9.42491 11.0556 9.45486 13.0213V13.0434C9.45669 13.2373 9.42028 13.4297 9.3477 13.6096C9.27512 13.7894 9.16779 13.9532 9.03187 14.0916C8.89594 14.2299 8.73408 14.3401 8.55553 14.4159C8.37698 14.4916 8.18526 14.5314 7.99132 14.533V14.5321ZM11.1931 13.0686C11.1589 11.0985 14.1332 11.0512 14.1675 13.0169V13.0434C14.1845 15 11.2274 15.0213 11.1931 13.0686ZM17.4162 14.5321C17.022 14.5377 16.6416 14.3868 16.3585 14.1125C16.0753 13.8382 15.9123 13.4628 15.9054 13.0686C15.8754 11.0985 18.8498 11.0556 18.8798 13.0213V13.0434C18.8822 13.2375 18.8463 13.4302 18.7739 13.6103C18.7015 13.7905 18.5943 13.9545 18.4582 14.093C18.3222 14.2314 18.16 14.3416 17.9812 14.4171C17.8024 14.4927 17.6104 14.532 17.4162 14.533V14.5321Z" fill="white"/>
</g>
<defs>
<clipPath id="clip0_1_12">
<rect width="25" height="25" fill="white" transform="translate(0 0.5)"/>
</clipPath>
</defs>
</svg>
